<svg version="1.1" xmlns="http://www.w3.org/2000/svg" xmlns:xlink="http://www.w3.org/1999/xlink" >
  <defs>
    <symbol id='search' viewBox="0 0 110 110">
      <path fill-rule="evenodd" clip-rule="evenodd" d="M51.4937 22.9167C35.7366 22.9167 22.9167 35.7366 22.9167 51.4937C22.9167 67.2508 35.7366 80.0707 51.4937 80.0707C57.9227 80.0707 63.8453 77.9147 68.6182 74.3235L80.2002 85.9021C80.9863 86.6881 82.0194 87.0834 83.0511 87.0834C84.0828 87.0834 85.1159 86.6881 85.902 85.902C87.4784 84.3256 87.4783 81.7766 85.902 80.2002L74.3235 68.6182C77.9147 63.8453 80.0707 57.9227 80.0707 51.4937C80.0707 35.7366 67.2508 22.9167 51.4937 22.9167ZM30.9814 51.4937C30.9814 40.1816 40.1816 30.9814 51.4937 30.9814C62.8058 30.9814 72.006 40.1816 72.006 51.4937C72.006 62.8058 62.8058 72.006 51.4937 72.006C40.1816 72.006 30.9814 62.8058 30.9814 51.4937Z" fill="#808080"/>
    </symbol>
    <symbol id='not-user' viewBox="0 0 65 75">
      <path fill-rule="evenodd" clip-rule="evenodd" d="M23 18.5C23 13.2533 27.2533 9 32.5 9C37.7467 9 42 13.2533 42 18.5C42 23.7467 37.7467 28 32.5 28C27.2533 28 23 23.7467 23 18.5ZM32.5 0C22.2827 0 14 8.28273 14 18.5C14 28.7173 22.2827 37 32.5 37C42.7173 37 51 28.7173 51 18.5C51 8.28273 42.7173 0 32.5 0ZM9 70.5C9 57.5213 19.5213 47 32.5 47C45.4787 47 56 57.5213 56 70.5C56 72.9853 58.0147 75 60.5 75C62.9853 75 65 72.9853 65 70.5C65 52.5507 50.4493 38 32.5 38C14.5507 38 0 52.5507 0 70.5C0 72.9853 2.01472 75 4.5 75C6.98528 75 9 72.9853 9 70.5Z" fill="#808080"/>
    </symbol>
    <symbol  id='not-repos' viewBox="0 0 76 62">
      <path fill-rule="evenodd" clip-rule="evenodd" d="M14.5 0C6.49187 0 0 6.49187 0 14.5V47.5C0 55.5081 6.49187 62 14.5 62H61.5C69.5081 62 76 55.5081 76 47.5V14.5C76 6.49187 69.5081 0 61.5 0H14.5ZM9 14.5C9 11.4624 11.4624 9 14.5 9H61.5C64.5376 9 67 11.4624 67 14.5V47.5C67 50.5376 64.5376 53 61.5 53H14.5C11.4624 53 9 50.5376 9 47.5V14.5ZM48.1984 24.6422C49.37 23.4706 49.37 21.5711 48.1984 20.3995C47.0268 19.228 45.1274 19.228 43.9558 20.3995L38.2989 26.0564L32.6421 20.3995C31.4705 19.228 29.571 19.228 28.3994 20.3995C27.2279 21.5711 27.2279 23.4706 28.3994 24.6422L34.0563 30.299L28.3994 35.9559C27.2279 37.1274 27.2279 39.0269 28.3994 40.1985C29.571 41.3701 31.4705 41.3701 32.6421 40.1985L38.2989 34.5417L43.9558 40.1985C45.1273 41.3701 47.0268 41.3701 48.1984 40.1985C49.37 39.0269 49.37 37.1274 48.1984 35.9559L42.5416 30.299L48.1984 24.6422Z" fill="#808080"/>
    </symbol>
  </defs>
</svg>